<svg width="212" height="377" viewBox="0 0 212 377" fill="none" xmlns="http://www.w3.org/2000/svg">
<rect x="0.75" y="0.75" width="210.5" height="375.5" rx="3.25" stroke="white" stroke-width="1.5"/>
<circle cx="109" cy="348" r="13.25" stroke="white" stroke-width="1.5"/>
<path d="M10 326L202 326" stroke="white" stroke-width="1.5"/>
<path d="M70.984 173.864L70.4135 172.477L67.0403 173.864L70.4135 175.251L70.984 173.864ZM93.704 183.208L95.1252 183.688L95.575 182.356L94.2745 181.821L93.704 183.208ZM92.04 188.136L91.4549 189.517L92.9439 190.148L93.4612 188.616L92.04 188.136ZM64.392 176.424H62.892V177.418L63.8069 177.805L64.392 176.424ZM64.392 171.304L63.8069 169.923L62.892 170.31V171.304H64.392ZM92.04 159.592L93.4612 159.112L92.9439 157.58L91.4549 158.211L92.04 159.592ZM93.704 164.52L94.2745 165.907L95.575 165.372L95.1252 164.04L93.704 164.52ZM70.4135 175.251L93.1335 184.595L94.2745 181.821L71.5545 172.477L70.4135 175.251ZM92.2828 182.728L90.6188 187.656L93.4612 188.616L95.1252 183.688L92.2828 182.728ZM92.6251 186.755L64.9771 175.043L63.8069 177.805L91.4549 189.517L92.6251 186.755ZM65.892 176.424V171.304H62.892V176.424H65.892ZM64.9771 172.685L92.6251 160.973L91.4549 158.211L63.8069 169.923L64.9771 172.685ZM90.6188 160.072L92.2828 165L95.1252 164.04L93.4612 159.112L90.6188 160.072ZM93.1335 163.133L70.4135 172.477L71.5545 175.251L94.2745 165.907L93.1335 163.133ZM101.669 204.84V206.34H102.735L103.086 205.333L101.669 204.84ZM95.589 204.84L94.1733 204.344L93.4744 206.34H95.589V204.84ZM117.285 142.888V141.388H116.221L115.869 142.392L117.285 142.888ZM123.237 142.888L124.654 143.381L125.348 141.388H123.237V142.888ZM101.669 203.34H95.589V206.34H101.669V203.34ZM97.0047 205.336L118.701 143.384L115.869 142.392L94.1733 204.344L97.0047 205.336ZM117.285 144.388H123.237V141.388H117.285V144.388ZM121.82 142.395L100.252 204.347L103.086 205.333L124.654 143.381L121.82 142.395ZM125.079 164.52L123.658 164.04L123.208 165.372L124.509 165.907L125.079 164.52ZM126.743 159.592L127.329 158.211L125.84 157.58L125.322 159.112L126.743 159.592ZM154.392 171.304H155.892V170.31L154.977 169.923L154.392 171.304ZM154.392 176.424L154.977 177.805L155.892 177.418V176.424H154.392ZM126.743 188.136L125.322 188.616L125.84 190.148L127.329 189.517L126.743 188.136ZM125.079 183.208L124.509 181.821L123.208 182.356L123.658 183.688L125.079 183.208ZM147.799 173.864L148.37 175.251L151.743 173.864L148.37 172.477L147.799 173.864ZM126.501 165L128.165 160.072L125.322 159.112L123.658 164.04L126.501 165ZM126.158 160.973L153.806 172.685L154.977 169.923L127.329 158.211L126.158 160.973ZM152.892 171.304V176.424H155.892V171.304H152.892ZM153.806 175.043L126.158 186.755L127.329 189.517L154.977 177.805L153.806 175.043ZM128.165 187.656L126.501 182.728L123.658 183.688L125.322 188.616L128.165 187.656ZM125.65 184.595L148.37 175.251L147.229 172.477L124.509 181.821L125.65 184.595ZM148.37 172.477L125.65 163.133L124.509 165.907L147.229 175.251L148.37 172.477Z" fill="white"/>
<rect x="79.75" y="11.75" width="59.5" height="4.5" rx="2.25" stroke="white" stroke-width="1.5"/>
</svg>
