<svg width="331" height="333" viewBox="0 0 331 333" fill="none" xmlns="http://www.w3.org/2000/svg">
<circle cx="165.5" cy="167.5" r="128" stroke="white"/>
<g clip-path="url(#clip0)">
<path d="M139.25 150C139.25 133.891 126.192 120.833 110.083 120.833C93.9749 120.833 80.9165 133.891 80.9165 150C80.9165 160.789 86.7906 170.186 95.5 175.232V167.544C95.5 164.297 98.2415 161.667 101.622 161.667H118.544C121.925 161.667 124.666 164.297 124.666 167.544V175.226C133.379 170.189 139.25 160.789 139.25 150Z" fill="#366DB6"/>
<path d="M241.334 135.417C246.166 135.417 250.084 131.499 250.084 126.667C250.084 121.834 246.166 117.917 241.334 117.917C236.501 117.917 232.583 121.834 232.583 126.667C232.583 131.499 236.501 135.417 241.334 135.417Z" fill="#FFC00A"/>
<path d="M89.6665 231.666C94.499 231.666 98.4165 227.749 98.4165 222.916C98.4165 218.084 94.499 214.167 89.6665 214.167C84.834 214.167 80.9165 218.084 80.9165 222.916C80.9165 227.749 84.834 231.666 89.6665 231.666Z" fill="#FF5068"/>
<path d="M209.25 252.084C214.082 252.084 218 248.166 218 243.334C218 238.501 214.082 234.583 209.25 234.583C204.418 234.583 200.5 238.501 200.5 243.334C200.5 248.166 204.418 252.084 209.25 252.084Z" fill="#FFC00A"/>
<path d="M165.5 179.166C170.332 179.166 174.25 175.249 174.25 170.416C174.25 165.584 170.332 161.667 165.5 161.667C160.668 161.667 156.75 165.584 156.75 170.416C156.75 175.249 160.668 179.166 165.5 179.166Z" fill="#FFC00A"/>
<path d="M110.083 150C114.916 150 118.833 146.082 118.833 141.25C118.833 136.418 114.916 132.5 110.083 132.5C105.251 132.5 101.333 136.418 101.333 141.25C101.333 146.082 105.251 150 110.083 150Z" fill="white"/>
<path d="M118.545 158.75H101.622C98.2418 158.75 95.5002 161.381 95.5002 164.627V172.316C99.7936 174.803 104.764 176.25 110.084 176.25C115.404 176.25 120.374 174.803 124.667 172.316V164.627C124.666 161.381 121.925 158.75 118.545 158.75Z" fill="white"/>
<path d="M209.25 112.084C209.25 95.9747 196.192 82.917 180.084 82.917C163.975 82.917 150.917 95.975 150.917 112.084C150.917 122.872 156.791 132.27 165.5 137.316V129.627C165.5 126.381 168.242 123.75 171.622 123.75H188.545C191.925 123.75 194.667 126.381 194.667 129.627V137.31C203.379 132.272 209.25 122.872 209.25 112.084Z" fill="#366DB6"/>
<path d="M180.083 112.083C184.916 112.083 188.833 108.166 188.833 103.333C188.833 98.501 184.916 94.5835 180.083 94.5835C175.251 94.5835 171.333 98.501 171.333 103.333C171.333 108.166 175.251 112.083 180.083 112.083Z" fill="white"/>
<path d="M188.545 120.731H171.622C168.242 120.731 165.5 123.362 165.5 126.608V134.297C169.794 136.785 174.764 138.231 180.084 138.231C185.404 138.231 190.374 136.784 194.667 134.297V126.608C194.666 123.362 191.925 120.731 188.545 120.731Z" fill="white"/>
<path d="M247.167 187.917C247.167 171.808 234.109 158.75 218 158.75C201.892 158.75 188.833 171.808 188.833 187.917C188.833 198.705 194.708 208.103 203.417 213.149V205.46C203.417 202.214 206.159 199.583 209.539 199.583H226.461C229.842 199.583 232.583 202.214 232.583 205.46V213.143C241.296 208.106 247.167 198.705 247.167 187.917Z" fill="#366DB6"/>
<path d="M218 187.917C222.832 187.917 226.75 183.999 226.75 179.167C226.75 174.334 222.832 170.417 218 170.417C213.168 170.417 209.25 174.334 209.25 179.167C209.25 183.999 213.168 187.917 218 187.917Z" fill="white"/>
<path d="M226.461 196.667H209.539C206.158 196.667 203.417 199.297 203.417 202.544V210.232C207.71 212.72 212.68 214.167 218 214.167C223.32 214.167 228.29 212.72 232.584 210.232V202.544C232.583 199.297 229.841 196.667 226.461 196.667Z" fill="white"/>
<path d="M177.167 222.917C177.167 206.808 164.109 193.75 148 193.75C131.892 193.75 118.833 206.808 118.833 222.917C118.833 233.705 124.708 243.103 133.417 248.149V240.46C133.417 237.214 136.158 234.583 139.539 234.583H156.461C159.842 234.583 162.583 237.214 162.583 240.46V248.143C171.296 243.106 177.167 233.705 177.167 222.917Z" fill="#366DB6"/>
<path d="M148 222.917C152.832 222.917 156.75 218.999 156.75 214.167C156.75 209.334 152.832 205.417 148 205.417C143.168 205.417 139.25 209.334 139.25 214.167C139.25 218.999 143.168 222.917 148 222.917Z" fill="white"/>
<path d="M156.461 231.667H139.539C136.159 231.667 133.417 234.297 133.417 237.544V245.232C137.71 247.72 142.68 249.166 148 249.166C153.321 249.166 158.291 247.72 162.584 245.232V237.544C162.584 234.297 159.842 231.667 156.461 231.667Z" fill="white"/>
<path d="M110.083 100.417C114.916 100.417 118.833 96.499 118.833 91.6665C118.833 86.834 114.916 82.9165 110.083 82.9165C105.251 82.9165 101.333 86.834 101.333 91.6665C101.333 96.499 105.251 100.417 110.083 100.417Z" fill="#FF5068"/>
<path d="M241.334 138.334C234.899 138.334 229.667 133.101 229.667 126.667C229.667 120.233 234.9 115 241.334 115C247.768 115 253 120.233 253 126.667C253 133.101 247.768 138.334 241.334 138.334ZM241.334 120.834C238.117 120.834 235.5 123.45 235.5 126.667C235.5 129.884 238.116 132.5 241.334 132.5C244.551 132.5 247.167 129.884 247.167 126.667C247.167 123.45 244.551 120.834 241.334 120.834Z" fill="#4D007E"/>
<path d="M89.6666 234.583C83.2322 234.583 78 229.351 78 222.917C78 216.483 83.2326 211.25 89.6666 211.25C96.1005 211.25 101.333 216.483 101.333 222.917C101.333 229.351 96.1009 234.583 89.6666 234.583ZM89.6666 217.083C86.4496 217.083 83.8331 219.7 83.8331 222.917C83.8331 226.134 86.4492 228.75 89.6666 228.75C92.8839 228.75 95.5 226.134 95.5 222.917C95.5 219.699 92.8839 217.083 89.6666 217.083Z" fill="#4D007E"/>
<path d="M234.409 124.231C233.983 124.231 233.552 124.138 233.144 123.94L207.982 111.792C206.532 111.092 205.922 109.348 206.622 107.898C207.322 106.449 209.063 105.836 210.516 106.539L235.678 118.687C237.128 119.387 237.737 121.131 237.037 122.58C236.535 123.625 235.494 124.231 234.409 124.231Z" fill="#4D007E"/>
<path d="M209.25 255C202.816 255 197.583 249.768 197.583 243.334C197.583 236.9 202.816 231.667 209.25 231.667C215.684 231.667 220.917 236.9 220.917 243.334C220.917 249.768 215.684 255 209.25 255ZM209.25 237.5C206.033 237.5 203.417 240.116 203.417 243.334C203.417 246.551 206.033 249.167 209.25 249.167C212.467 249.167 215.083 246.551 215.083 243.334C215.083 240.116 212.467 237.5 209.25 237.5Z" fill="#4D007E"/>
<path d="M202.326 240.898C201.9 240.898 201.468 240.804 201.06 240.606L175.898 228.458C174.449 227.758 173.839 226.014 174.539 224.565C175.239 223.112 176.98 222.503 178.433 223.205L203.595 235.353C205.044 236.053 205.654 237.797 204.954 239.247C204.452 240.291 203.411 240.898 202.326 240.898Z" fill="#4D007E"/>
<path d="M165.5 182.084C159.066 182.084 153.833 176.851 153.833 170.417C153.833 163.983 159.066 158.75 165.5 158.75C171.934 158.75 177.167 163.983 177.167 170.417C177.167 176.851 171.934 182.084 165.5 182.084ZM165.5 164.584C162.283 164.584 159.667 167.2 159.667 170.417C159.667 173.634 162.283 176.25 165.5 176.25C168.717 176.25 171.333 173.634 171.333 170.417C171.333 167.2 168.717 164.584 165.5 164.584Z" fill="#4D007E"/>
<path d="M158.576 167.981C157.949 167.981 157.319 167.78 156.785 167.366L137.457 152.301C136.185 151.309 135.96 149.478 136.949 148.206C137.941 146.934 139.772 146.715 141.044 147.698L160.373 162.763C161.645 163.755 161.869 165.586 160.88 166.858C160.303 167.596 159.445 167.981 158.576 167.981Z" fill="#4D007E"/>
<path d="M218 220C200.31 220 185.917 205.606 185.917 187.917C185.917 170.227 200.31 155.833 218 155.833C235.69 155.833 250.083 170.227 250.083 187.917C250.083 205.606 235.69 220 218 220ZM218 161.667C203.525 161.667 191.75 173.441 191.75 187.917C191.75 202.392 203.525 214.167 218 214.167C232.475 214.167 244.25 202.392 244.25 187.917C244.25 173.441 232.475 161.667 218 161.667Z" fill="#4D007E"/>
<path d="M148 255C130.31 255 115.917 240.606 115.917 222.916C115.917 205.227 130.31 190.833 148 190.833C165.69 190.833 180.083 205.227 180.083 222.916C180.083 240.606 165.69 255 148 255ZM148 196.666C133.525 196.666 121.75 208.441 121.75 222.916C121.75 237.392 133.525 249.166 148 249.166C162.475 249.166 174.25 237.392 174.25 222.916C174.25 208.441 162.475 196.666 148 196.666Z" fill="#4D007E"/>
<path d="M110.083 182.083C92.3938 182.083 78 167.69 78 150C78 132.31 92.3938 117.917 110.083 117.917C127.773 117.917 142.167 132.31 142.167 150C142.167 167.69 127.773 182.083 110.083 182.083ZM110.083 123.75C95.608 123.75 83.8334 135.525 83.8334 150C83.8334 164.475 95.608 176.25 110.083 176.25C124.559 176.25 136.333 164.475 136.333 150C136.333 135.525 124.559 123.75 110.083 123.75Z" fill="#4D007E"/>
<path d="M180.083 144.167C162.394 144.167 148 129.773 148 112.083C148 94.3934 162.394 80 180.083 80C197.773 80 212.167 94.3938 212.167 112.083C212.167 129.773 197.773 144.167 180.083 144.167ZM180.083 85.8334C165.608 85.8334 153.833 97.608 153.833 112.083C153.833 126.559 165.608 138.333 180.083 138.333C194.559 138.333 206.333 126.559 206.333 112.083C206.333 97.608 194.559 85.8334 180.083 85.8334Z" fill="#4D007E"/>
<path d="M130.707 132.296C129.885 132.296 129.068 131.949 128.491 131.275C127.444 130.05 127.587 128.209 128.812 127.162L149.024 109.866C150.249 108.82 152.09 108.965 153.137 110.184C154.184 111.409 154.041 113.25 152.816 114.297L132.603 131.593C132.052 132.066 131.378 132.296 130.707 132.296Z" fill="#4D007E"/>
<path d="M215.086 161.667C214.2 161.667 213.325 161.264 212.75 160.5L195.25 137.167C194.284 135.88 194.544 134.051 195.833 133.086C197.123 132.124 198.951 132.377 199.917 133.67L217.417 157.003C218.382 158.289 218.123 160.118 216.833 161.084C216.308 161.477 215.693 161.667 215.086 161.667Z" fill="#4D007E"/>
<path d="M174.857 214.444C173.97 214.444 173.095 214.041 172.52 213.277C171.555 211.991 171.815 210.162 173.104 209.197L189.396 196.979C190.686 196.013 192.514 196.273 193.48 197.562C194.445 198.849 194.186 200.678 192.896 201.643L176.604 213.861C176.079 214.251 175.466 214.444 174.857 214.444Z" fill="#4D007E"/>
<path d="M118.833 225.833H98.4166C96.8067 225.833 95.5 224.53 95.5 222.917C95.5 221.304 96.8067 220 98.4166 220H118.833C120.443 220 121.75 221.304 121.75 222.917C121.75 224.53 120.443 225.833 118.833 225.833Z" fill="#4D007E"/>
<path d="M110.084 103.333C103.649 103.333 98.417 98.1009 98.417 91.6669C98.417 85.2329 103.649 80 110.084 80C116.518 80 121.75 85.2326 121.75 91.6666C121.75 98.1005 116.518 103.333 110.084 103.333ZM110.084 85.8334C106.867 85.8334 104.25 88.4496 104.25 91.6669C104.25 94.8842 106.866 97.5 110.084 97.5C113.301 97.5 115.917 94.8839 115.917 91.6666C115.917 88.4496 113.301 85.8334 110.084 85.8334Z" fill="#4D007E"/>
<path d="M110.084 123.75C108.474 123.75 107.167 122.446 107.167 120.833V100.417C107.167 98.8039 108.474 97.5002 110.084 97.5002C111.693 97.5002 113 98.8039 113 100.417V120.833C113 122.446 111.693 123.75 110.084 123.75Z" fill="#4D007E"/>
</g>
<circle cx="103.5" cy="320.5" r="3.5" fill="white"/>
<circle cx="8.5" cy="115.5" r="3.5" fill="white"/>
<circle cx="165.5" cy="167.5" r="165" stroke="white"/>
<circle cx="326.5" cy="205.5" r="3.5" fill="white"/>
<circle cx="187.5" cy="3.5" r="3.5" fill="white"/>
<defs>
<clipPath id="clip0">
<rect width="175" height="175" fill="white" transform="translate(78 80)"/>
</clipPath>
</defs>
</svg>
