<svg fill="none" xmlns="http://www.w3.org/2000/svg" viewBox="-0.07 131.37 250.1 112.27">
<g clip-path="url(#clip0)">
<path d="M56.76 243.6L51.76 243.23C37.7027 242.111 24.5791 235.751 14.9917 225.409C5.40434 215.068 0.0533881 201.502 0 187.4L0 186.6C0.141535 174.702 4.10297 163.165 11.3 153.69L11.42 153.54C16.6582 146.681 23.4023 141.118 31.1319 137.279C38.8615 133.44 47.3697 131.429 56 131.4C81.57 131.4 123.72 164.1 136 174.12L151 186.35L149.27 188.47L134.27 176.24C122.14 166.36 80.64 134.14 55.97 134.14C47.7688 134.176 39.6852 136.094 32.3414 139.745C24.9977 143.396 18.5895 148.683 13.61 155.2V155.25C6.69687 164.289 2.89099 175.321 2.76 186.7V187.4C2.8107 199.979 7.2924 212.138 15.4178 221.741C23.5432 231.345 34.7927 237.777 47.19 239.91C41.8549 235.193 37.5294 229.445 34.4738 223.012C31.4182 216.58 29.6957 209.596 29.41 202.48C29.0881 196.975 29.8352 191.46 31.61 186.24L31.95 185.32C34.76 178.14 43.16 167.56 55.95 166C69.13 164.4 79.83 172 94.64 182.52L98.95 185.52L97.37 187.76L93 184.76C78.16 174.22 68.35 167.25 56.22 168.76C44.37 170.2 36.66 180.27 34.29 186.76V188H33.89C32.4372 192.619 31.8441 197.466 32.14 202.3C32.83 217.81 40.52 232.16 52.7 240.69L56.76 243.6Z" fill="white"/>
<path d="M193.23 243.6L197.32 240.74C209.5 232.21 217.18 217.86 217.88 202.35C218.175 197.516 217.582 192.67 216.13 188.05H215.8L215.69 186.76C213.33 180.23 205.61 170.15 193.76 168.76C181.63 167.28 171.83 174.25 156.98 184.76L152.66 187.82L151.08 185.58L155.39 182.53C170.21 172 180.91 164.4 194.09 166C207.27 167.6 215.81 178.85 218.33 186L218.41 186.22C220.185 191.44 220.932 196.955 220.61 202.46C220.326 209.577 218.604 216.563 215.548 222.998C212.492 229.432 208.166 235.182 202.83 239.9C215.227 237.767 226.477 231.335 234.602 221.731C242.728 212.128 247.209 199.969 247.26 187.39V186.7C247.139 175.355 243.366 164.352 236.5 155.32L236.37 155.14C231.385 148.636 224.976 143.361 217.635 139.72C210.293 136.08 202.215 134.171 194.02 134.14C169.35 134.14 127.86 166.36 115.72 176.24L100.72 188.47L99 186.34L114 174.11C126.31 164.11 168.46 131.39 194 131.39C202.625 131.422 211.127 133.433 218.852 137.268C226.577 141.103 233.32 146.66 238.56 153.51L238.62 153.59C245.881 163.101 249.873 174.705 250 186.67V187.44C249.946 201.546 244.591 215.117 234.997 225.459C225.404 235.801 212.273 242.158 198.21 243.27L193.23 243.6Z" fill="white"/>
<path d="M2.78 186.18L0 186.11C0.337042 171.482 6.38549 157.568 16.8512 147.343C27.3169 137.119 41.3687 131.396 56 131.4C81.57 131.4 123.72 164.1 136 174.12L134.27 176.24C122.14 166.36 80.64 134.14 55.97 134.14C42.0886 134.23 28.7845 139.707 18.8619 149.415C8.93942 159.123 3.17366 172.304 2.78 186.18Z" fill="white"/>
<path d="M194 243.41C168.43 243.41 126.28 210.72 114 200.69L97.2801 187.78C86.6001 180.26 79.3601 175.5 73.1001 171.89L74.4701 169.52C80.8001 173.17 88.1101 177.97 98.9101 185.57L115.72 198.57C127.88 208.47 169.38 240.69 194.04 240.69C207.911 240.752 221.252 235.374 231.202 225.71C241.152 216.046 246.917 202.866 247.26 189L250 189.08C249.566 203.641 243.474 217.459 233.019 227.603C222.564 237.746 208.567 243.416 194 243.41Z" fill="white"/>
<path d="M247.26 186.18C246.856 172.304 241.08 159.127 231.15 149.426C221.22 139.726 207.912 134.26 194.03 134.18V131.4C208.663 131.396 222.716 137.12 233.182 147.347C243.648 157.574 249.696 171.491 250.03 186.12L247.26 186.18Z" fill="white"/>
<path d="M56 243.41C41.4423 243.402 27.4588 237.731 17.0076 227.597C6.5563 217.463 0.457035 203.66 0 189.11L2.78 189C3.12785 202.863 8.89509 216.037 18.8445 225.697C28.7939 235.356 42.1329 240.732 56 240.67C80.66 240.67 122.16 208.45 134.29 198.57L151.08 185.57C161.92 177.93 169.23 173.13 175.57 169.48L176.94 171.85C170.68 175.46 163.43 180.22 152.71 187.77L136 200.71C123.71 210.71 81.57 243.41 56 243.41Z" fill="white"/>
<path d="M59.4001 209C58.2302 209.001 57.0614 208.931 55.9001 208.79C42.7101 207.19 34.1801 195.94 31.6601 188.79L31.5901 188.59V188.16H32.9301V186.79H34.3201V188.08C36.6801 194.61 44.4001 204.68 56.2501 206.08C68.3801 207.56 78.1801 200.59 93.0301 190.08L97.3301 187L98.9101 189.24L94.6001 192.24C81.1201 201.86 71.0001 209 59.4001 209Z" fill="white"/>
<path d="M56 243.41C47.3627 243.375 38.8489 241.357 31.1158 237.509C23.3827 233.662 16.6372 228.089 11.4 221.22L11.32 221.12C4.1105 211.643 0.141605 200.097 0 188.19L0 187.39C0.0516954 173.283 5.40604 159.711 15.0001 149.369C24.5942 139.026 37.7265 132.669 51.79 131.56L52 134.3C38.6236 135.354 26.1327 141.4 17.0072 151.237C7.88165 161.073 2.78889 173.982 2.74 187.4V188.12C2.8638 199.492 6.659 210.52 13.56 219.56L13.64 219.67C18.6266 226.172 25.0364 231.446 32.3775 235.086C39.7186 238.726 47.796 240.636 55.99 240.67C80.66 240.67 122.15 208.45 134.29 198.57L149.29 186.34L151.02 188.46L136.02 200.69C123.72 210.71 81.58 243.41 56 243.41Z" fill="white"/>
<path d="M59.4001 209C58.2302 209.001 57.0614 208.931 55.9001 208.79C42.7101 207.19 34.1801 195.94 31.6601 188.79L31.5901 188.59V188.16H32.9301V186.79H34.3201V188.08C36.6801 194.61 44.4001 204.68 56.2501 206.08C68.3801 207.56 78.1801 200.59 93.0301 190.08L97.3301 187L98.9101 189.24L94.6001 192.24C81.1201 201.86 71.0001 209 59.4001 209Z" fill="white"/>
<path d="M56 243.41C47.3627 243.375 38.8489 241.357 31.1158 237.509C23.3827 233.662 16.6372 228.089 11.4 221.22L11.32 221.12C4.1105 211.643 0.141605 200.097 0 188.19L0 187.39C0.0516954 173.283 5.40604 159.711 15.0001 149.369C24.5942 139.026 37.7265 132.669 51.79 131.56L52 134.3C38.6236 135.354 26.1327 141.4 17.0072 151.237C7.88165 161.073 2.78889 173.982 2.74 187.4V188.12C2.8638 199.492 6.659 210.52 13.56 219.56L13.64 219.67C18.6266 226.172 25.0364 231.446 32.3775 235.086C39.7186 238.726 47.796 240.636 55.99 240.67C80.66 240.67 122.15 208.45 134.29 198.57L149.29 186.34L151.02 188.46L136.02 200.69C123.72 210.71 81.58 243.41 56 243.41Z" fill="white"/>
<path d="M56 243.41V240.67C80.67 240.67 122.16 208.45 134.3 198.57L148.45 187C148.53 186.934 148.617 186.877 148.71 186.83L150.59 185.9C163.19 176.99 175.27 169.7 183.75 165.9C187.75 164.12 200.24 159.48 210.25 159.35H210.74C224.74 159.35 238.74 167.35 246.74 179.42C244.88 166.785 238.52 155.246 228.83 146.926C219.14 138.607 206.771 134.066 194 134.14C169.33 134.14 127.84 166.36 115.71 176.24L99 189.2C88.15 196.84 80.85 201.64 74.51 205.29L73.14 202.92C79.4 199.32 86.64 194.56 97.37 187L114 174.09C126.28 164.09 168.43 131.4 194 131.4C208.562 131.393 222.554 137.059 233.009 147.196C243.463 157.334 249.558 171.144 250 185.7C250.006 186.014 249.905 186.32 249.712 186.568C249.52 186.816 249.248 186.991 248.942 187.062C248.636 187.134 248.315 187.098 248.033 186.961C247.75 186.824 247.523 186.594 247.39 186.31C240.75 171.89 225.48 161.94 210.3 162.16C200.75 162.29 188.71 166.76 184.88 168.48C176.54 172.21 164.59 179.42 152.1 188.27L151.91 188.38L150.07 189.28L136.07 200.7C123.72 210.71 81.58 243.41 56 243.41Z" fill="white"/>
<path d="M190.59 209C178.95 209 168.87 201.84 155.39 192.27L151.08 189.22L152.66 186.98L157 189.98C171.84 200.52 181.65 207.5 193.78 205.98C205.63 204.54 213.34 194.47 215.71 187.98V186.7H217V188.07L218.34 188.12V188.52L218.27 188.74C215.75 195.91 207.22 207.16 194.03 208.74C192.89 208.895 191.741 208.982 190.59 209Z" fill="white"/>
<path d="M194 243.41C168.43 243.41 126.28 210.72 114 200.69L99 188.46L100.73 186.34L115.73 198.57C127.86 208.45 169.36 240.67 194.03 240.67C202.224 240.638 210.303 238.729 217.644 235.089C224.985 231.448 231.395 226.174 236.38 219.67L236.52 219.49C243.387 210.459 247.16 199.455 247.28 188.11V187.41C247.233 173.987 242.139 161.073 233.009 151.234C223.879 141.394 211.382 135.35 198 134.3L198.21 131.57C212.274 132.679 225.406 139.036 235 149.379C244.594 159.721 249.948 173.293 250 187.4V188.13C249.875 200.094 245.887 211.697 238.63 221.21L238.57 221.29C233.329 228.142 226.585 233.699 218.858 237.534C211.131 241.369 202.626 243.379 194 243.41Z" fill="white"/>
<path d="M194 243.41C168.43 243.41 126.28 210.72 114 200.69L100 189.27L98.16 188.37L98 188.26C85.51 179.41 73.56 172.2 65.22 168.47C61.39 166.76 49.35 162.28 39.8 162.15C24.57 161.93 9.34997 171.88 2.70997 186.3C2.62908 186.659 2.40874 186.972 2.09743 187.169C1.78612 187.366 1.40934 187.431 1.04997 187.35C0.690604 187.269 0.378088 187.049 0.181175 186.737C-0.0157385 186.426 -0.0809191 186.049 -2.81297e-05 185.69C0.457007 171.139 6.55627 157.337 17.0075 147.203C27.4588 137.069 41.4423 131.398 56 131.39C81.57 131.39 123.72 164.09 136 174.11L152.72 187C163.4 194.52 170.65 199.28 176.9 202.88L175.53 205.25C169.2 201.6 161.89 196.8 151.09 189.2L134.28 176.2C122.12 166.3 80.63 134.08 55.96 134.08C43.1828 134.027 30.8168 138.593 21.1388 146.935C11.4607 155.277 5.12207 166.835 3.28997 179.48C11.39 167.24 25.56 159.2 39.74 159.42C49.74 159.55 62.27 164.2 66.24 165.97C74.72 169.76 86.8 177 99.4 186L101.28 186.93C101.373 186.977 101.46 187.034 101.54 187.1L115.68 198.62C127.81 208.5 169.31 240.72 193.98 240.72V243.46L194 243.41Z" fill="white"/>
</g>
<defs>
<clipPath id="clip0">
<rect width="250" height="250" fill="white"/>
</clipPath>
</defs>
</svg>